<svg width="70%" viewBox="0 0 680 820" xmlns="http://www.w3.org/2000/svg">
    <defs>
        <marker id="arrow" viewBox="0 0 10 10" refX="8" refY="5" markerWidth="6" markerHeight="6"
            orient="auto-start-reverse">
            <path d="M2 1L8 5L2 9" fill="none" stroke="context-stroke" stroke-width="1.5"
                stroke-linecap="round" stroke-linejoin="round" />
        </marker>
        <style>
            text { font-family: Arial, sans-serif; fill: #1a1a2e; }
            .th { font-size: 14px; font-weight: 600; }
            .ts { font-size: 12px; font-weight: 400; fill: #3a3a5c; }

            /* Purple - Domain */
            .c-purple rect { fill: #EEEDFE; stroke: #534AB7; }
            .c-purple .th { fill: #3C3489; }
            .c-purple .ts { fill: #534AB7; }

            /* Teal - Application */
            .c-teal rect { fill: #E1F5EE; stroke: #0F6E56; }
            .c-teal .th { fill: #085041; }
            .c-teal .ts { fill: #0F6E56; }

            /* Amber - Infrastructure */
            .c-amber rect { fill: #FAEEDA; stroke: #854F0B; }
            .c-amber .th { fill: #633806; }
            .c-amber .ts { fill: #854F0B; }

            /* Coral - API */
            .c-coral rect { fill: #FAECE7; stroke: #993C1D; }
            .c-coral .th { fill: #712B13; }
            .c-coral .ts { fill: #993C1D; }

            /* Blue - PostgreSQL */
            .c-blue rect { fill: #E6F1FB; stroke: #185FA5; }
            .c-blue .th { fill: #0C447C; }

            .arr { stroke: #888780; stroke-width: 1; fill: none; marker-end: url(#arrow); }
            .label { font-size: 11px; fill: #888780; }
        </style>
    </defs>

    <!-- ── Layer 1: Domain ── -->
    <g class="c-purple">
        <rect x="20" y="20" width="640" height="148" rx="12" stroke-width="0.5" />
        <text class="th" x="36" y="44">Domain layer</text>
        <text class="ts" x="36" y="60">No dependencies — pure C# entities and interfaces</text>
    </g>

    <g class="c-purple">
        <rect x="40" y="72" width="120" height="80" rx="6" stroke-width="0.5" />
        <text class="th" x="100" y="96" text-anchor="middle">Entities</text>
        <text class="ts" x="100" y="112" text-anchor="middle">User, Role</text>
        <text class="ts" x="100" y="126" text-anchor="middle">RefreshToken</text>
        <text class="ts" x="100" y="140" text-anchor="middle">PasswordReset</text>
    </g>
    <g class="c-purple">
        <rect x="176" y="72" width="120" height="80" rx="6" stroke-width="0.5" />
        <text class="th" x="236" y="96" text-anchor="middle">Interfaces</text>
        <text class="ts" x="236" y="112" text-anchor="middle">IUserRepository</text>
        <text class="ts" x="236" y="126" text-anchor="middle">ITokenRepository</text>
        <text class="ts" x="236" y="140" text-anchor="middle">IUnitOfWork</text>
    </g>
    <g class="c-purple">
        <rect x="312" y="72" width="120" height="80" rx="6" stroke-width="0.5" />
        <text class="th" x="372" y="96" text-anchor="middle">Enums &amp; consts</text>
        <text class="ts" x="372" y="112" text-anchor="middle">UserStatus</text>
        <text class="ts" x="372" y="126" text-anchor="middle">TokenType</text>
        <text class="ts" x="372" y="140" text-anchor="middle">ErrorCodes</text>
    </g>
    <g class="c-purple">
        <rect x="448" y="72" width="192" height="80" rx="6" stroke-width="0.5" />
        <text class="th" x="544" y="96" text-anchor="middle">Exceptions &amp; events</text>
        <text class="ts" x="544" y="112" text-anchor="middle">DomainException</text>
        <text class="ts" x="544" y="126" text-anchor="middle">UserRegisteredEvent</text>
        <text class="ts" x="544" y="140" text-anchor="middle">PasswordResetEvent</text>
    </g>

    <!-- ── Layer 2: Application ── -->
    <g class="c-teal">
        <rect x="20" y="188" width="640" height="168" rx="12" stroke-width="0.5" />
        <text class="th" x="36" y="212">Application layer</text>
        <text class="ts" x="36" y="228">CQRS with MediatR — Commands, Queries, Validators, DTOs</text>
    </g>

    <g class="c-teal">
        <rect x="40" y="240" width="130" height="100" rx="6" stroke-width="0.5" />
        <text class="th" x="105" y="262" text-anchor="middle">Auth commands</text>
        <text class="ts" x="105" y="278" text-anchor="middle">RegisterCommand</text>
        <text class="ts" x="105" y="292" text-anchor="middle">LoginCommand</text>
        <text class="ts" x="105" y="306" text-anchor="middle">ForgotPassword</text>
        <text class="ts" x="105" y="320" text-anchor="middle">ResetPassword</text>
    </g>
    <g class="c-teal">
        <rect x="186" y="240" width="130" height="100" rx="6" stroke-width="0.5" />
        <text class="th" x="251" y="262" text-anchor="middle">User commands</text>
        <text class="ts" x="251" y="278" text-anchor="middle">UpdateProfile</text>
        <text class="ts" x="251" y="292" text-anchor="middle">ChangePassword</text>
        <text class="ts" x="251" y="306" text-anchor="middle">AssignRole</text>
        <text class="ts" x="251" y="320" text-anchor="middle">BanUser</text>
    </g>
    <g class="c-teal">
        <rect x="332" y="240" width="130" height="100" rx="6" stroke-width="0.5" />
        <text class="th" x="397" y="262" text-anchor="middle">Token commands</text>
        <text class="ts" x="397" y="278" text-anchor="middle">RefreshToken</text>
        <text class="ts" x="397" y="292" text-anchor="middle">RevokeToken</text>
        <text class="ts" x="397" y="306" text-anchor="middle">ValidateToken</text>
        <text class="ts" x="397" y="320" text-anchor="middle">RevokeAll</text>
    </g>
    <g class="c-teal">
        <rect x="478" y="240" width="162" height="100" rx="6" stroke-width="0.5" />
        <text class="th" x="559" y="262" text-anchor="middle">Queries &amp; DTOs</text>
        <text class="ts" x="559" y="278" text-anchor="middle">GetUserQuery</text>
        <text class="ts" x="559" y="292" text-anchor="middle">ListUsersQuery</text>
        <text class="ts" x="559" y="306" text-anchor="middle">UserResponse</text>
        <text class="ts" x="559" y="320" text-anchor="middle">TokenResponse</text>
    </g>

    <!-- ── Layer 3: Infrastructure ── -->
    <g class="c-amber">
        <rect x="20" y="376" width="640" height="168" rx="12" stroke-width="0.5" />
        <text class="th" x="36" y="400">Infrastructure layer</text>
        <text class="ts" x="36" y="416">EF Core + PostgreSQL, JWT, Email, Hangfire, external
            services</text>
    </g>

    <g class="c-amber">
        <rect x="40" y="428" width="130" height="100" rx="6" stroke-width="0.5" />
        <text class="th" x="105" y="450" text-anchor="middle">Persistence</text>
        <text class="ts" x="105" y="466" text-anchor="middle">AppDbContext</text>
        <text class="ts" x="105" y="480" text-anchor="middle">UserRepository</text>
        <text class="ts" x="105" y="494" text-anchor="middle">Migrations</text>
        <text class="ts" x="105" y="508" text-anchor="middle">Configurations</text>
    </g>
    <g class="c-amber">
        <rect x="186" y="428" width="130" height="100" rx="6" stroke-width="0.5" />
        <text class="th" x="251" y="450" text-anchor="middle">Auth services</text>
        <text class="ts" x="251" y="466" text-anchor="middle">JwtTokenService</text>
        <text class="ts" x="251" y="480" text-anchor="middle">PasswordHasher</text>
        <text class="ts" x="251" y="494" text-anchor="middle">RefreshTokenSvc</text>
        <text class="ts" x="251" y="508" text-anchor="middle">OtpService</text>
    </g>
    <g class="c-amber">
        <rect x="332" y="428" width="130" height="100" rx="6" stroke-width="0.5" />
        <text class="th" x="397" y="450" text-anchor="middle">Notification</text>
        <text class="ts" x="397" y="466" text-anchor="middle">EmailService</text>
        <text class="ts" x="397" y="480" text-anchor="middle">SmtpClient</text>
        <text class="ts" x="397" y="494" text-anchor="middle">TemplateRenderer</text>
        <text class="ts" x="397" y="508" text-anchor="middle">EmailTemplates</text>
    </g>
    <g class="c-amber">
        <rect x="478" y="428" width="162" height="100" rx="6" stroke-width="0.5" />
        <text class="th" x="559" y="450" text-anchor="middle">Background jobs</text>
        <text class="ts" x="559" y="466" text-anchor="middle">Hangfire setup</text>
        <text class="ts" x="559" y="480" text-anchor="middle">CleanExpiredTokens</text>
        <text class="ts" x="559" y="494" text-anchor="middle">SendEmailJob</text>
        <text class="ts" x="559" y="508" text-anchor="middle">AuditLogJob</text>
    </g>

    <!-- ── Layer 4: API ── -->
    <g class="c-coral">
        <rect x="20" y="564" width="640" height="168" rx="12" stroke-width="0.5" />
        <text class="th" x="36" y="588">API layer</text>
        <text class="ts" x="36" y="604">Controllers, Middleware, DI Extensions, Filters</text>
    </g>

    <g class="c-coral">
        <rect x="40" y="616" width="130" height="100" rx="6" stroke-width="0.5" />
        <text class="th" x="105" y="638" text-anchor="middle">Controllers</text>
        <text class="ts" x="105" y="654" text-anchor="middle">AuthController</text>
        <text class="ts" x="105" y="668" text-anchor="middle">UserController</text>
        <text class="ts" x="105" y="682" text-anchor="middle">TokenController</text>
        <text class="ts" x="105" y="696" text-anchor="middle">AdminController</text>
    </g>
    <g class="c-coral">
        <rect x="186" y="616" width="130" height="100" rx="6" stroke-width="0.5" />
        <text class="th" x="251" y="638" text-anchor="middle">Middleware</text>
        <text class="ts" x="251" y="654" text-anchor="middle">ExceptionMiddleware</text>
        <text class="ts" x="251" y="668" text-anchor="middle">RequestLogger</text>
        <text class="ts" x="251" y="682" text-anchor="middle">RateLimiter</text>
        <text class="ts" x="251" y="696" text-anchor="middle">CorrelationId</text>
    </g>
    <g class="c-coral">
        <rect x="332" y="616" width="130" height="100" rx="6" stroke-width="0.5" />
        <text class="th" x="397" y="638" text-anchor="middle">Extensions</text>
        <text class="ts" x="397" y="654" text-anchor="middle">ServiceExtensions</text>
        <text class="ts" x="397" y="668" text-anchor="middle">AuthExtensions</text>
        <text class="ts" x="397" y="682" text-anchor="middle">SwaggerExtensions</text>
        <text class="ts" x="397" y="696" text-anchor="middle">CorsExtensions</text>
    </g>
    <g class="c-coral">
        <rect x="478" y="616" width="162" height="100" rx="6" stroke-width="0.5" />
        <text class="th" x="559" y="638" text-anchor="middle">Cross-cutting</text>
        <text class="ts" x="559" y="654" text-anchor="middle">Filters / ApiResponse</text>
        <text class="ts" x="559" y="668" text-anchor="middle">HealthChecks</text>
        <text class="ts" x="559" y="682" text-anchor="middle">appsettings.json</text>
        <text class="ts" x="559" y="696" text-anchor="middle">Dockerfile</text>
    </g>

    <!-- ── Dependency arrows ── -->
    <line x1="340" y1="562" x2="340" y2="547" class="arr" />
    <line x1="340" y1="374" x2="340" y2="359" class="arr" />
    <line x1="340" y1="186" x2="340" y2="171" class="arr" />

    <text class="label" x="352" y="557">depends on</text>
    <text class="label" x="352" y="370">depends on</text>
    <text class="label" x="352" y="183">depends on</text>

    <!-- ── PostgreSQL ── -->
    <line x1="340" y1="544" x2="340" y2="750" stroke="#888780" stroke-width="0.5"
        stroke-dasharray="4 3" fill="none" />
    <line x1="340" y1="750" x2="340" y2="752" class="arr" />
    <text class="label" x="352" y="750">reads / writes</text>

    <g class="c-blue">
        <rect x="180" y="752" width="320" height="46" rx="8" stroke-width="0.5" />
        <text class="th" x="340" y="779" text-anchor="middle">PostgreSQL database</text>
    </g>

</svg>